<svg width="56" height="84" viewBox="0 0 56 84" fill="none" xmlns="http://www.w3.org/2000/svg">
<path d="M5.25 83.3788C3.85 83.3788 2.625 82.756 1.575 81.5104C0.524999 80.2647 0 78.8115 0 77.1506V23.1728C0 21.512 0.524999 20.0587 1.575 18.8131C2.625 17.5674 3.85 16.9446 5.25 16.9446H14.875V15.9066C14.875 11.5468 16.1437 7.86181 18.6812 4.85151C21.2187 1.84121 24.325 0.33606 28 0.33606C31.675 0.33606 34.7812 1.84121 37.3188 4.85151C39.8563 7.86181 41.125 11.5468 41.125 15.9066V16.9446H50.75C52.15 16.9446 53.375 17.5674 54.425 18.8131C55.475 20.0587 56 21.512 56 23.1728V77.1506C56 78.8115 55.475 80.2647 54.425 81.5104C53.375 82.756 52.15 83.3788 50.75 83.3788H5.25ZM20.125 15.9066V16.9446H35.875V15.9066C35.875 13.2769 35.1167 11.0624 33.6 9.26316C32.0833 7.4639 30.2167 6.56427 28 6.56427C25.7833 6.56427 23.9167 7.4639 22.4 9.26316C20.8833 11.0624 20.125 13.2769 20.125 15.9066ZM5.25 77.1506H50.75V23.1728H41.125V32.5151C41.125 33.4148 40.8771 34.1587 40.3813 34.7469C39.8854 35.3351 39.2583 35.6292 38.5 35.6292C37.7417 35.6292 37.1146 35.3351 36.6187 34.7469C36.1229 34.1587 35.875 33.4148 35.875 32.5151V23.1728H20.125V32.5151C20.125 33.4148 19.8771 34.1587 19.3813 34.7469C18.8854 35.3351 18.2583 35.6292 17.5 35.6292C16.7417 35.6292 16.1146 35.3351 15.6187 34.7469C15.1229 34.1587 14.875 33.4148 14.875 32.5151V23.1728H5.25V77.1506ZM5.25 77.1506V23.1728V77.1506Z" fill="#F2522E"/>
</svg>
